<svg width="20" height="18" fill="none" xmlns="http://www.w3.org/2000/svg"><path d="M9.688 2.32L1.952 15.016c-.078.117-.078.195-.078.312 0 .313.234.547.547.547h15.117c.313 0 .586-.234.586-.547 0-.117-.04-.195-.117-.312L10.273 2.32A.294.294 0 0010 2.125c-.156 0-.234.078-.313.195zm-1.602-.976A2.247 2.247 0 0110 .25c.742 0 1.484.43 1.875 1.094l7.734 12.695c.235.39.391.82.391 1.29 0 1.327-1.094 2.421-2.46 2.421H2.421A2.434 2.434 0 010 15.328c0-.469.117-.898.352-1.289L8.086 1.344zm3.164 12.031c0 .703-.586 1.25-1.25 1.25-.703 0-1.25-.547-1.25-1.25 0-.664.547-1.25 1.25-1.25.664 0 1.25.586 1.25 1.25zm-.313-7.188v3.75c0 .547-.43.938-.937.938-.547 0-.938-.39-.938-.938v-3.75c0-.507.391-.937.938-.937a.95.95 0 01.938.938z" fill="#FC820A"/></svg>